# xmcd
#
# Track frame offsets: 
#        300
#        18715
#        43293
#        66224
#        88106
#        110070
#        128762
#        147454
#        170605
#        196523
#        223205
#        242419
#        264696
#
# Disc length: 3832 seconds
#
# Revision: 0
# Processed by: cddbd v1.5.2PL0 Copyright (c) Steve Scherf et al.
# Submitted via: ExactAudioCopy v1.0b1
#
DISCID=ca0ef40d
DTITLE=Bernard Allison - Times Are Changing
DYEAR=1998
DGENRE=Modern Electric Blues
TTITLE0=I Can't Get You Out Of My Mind
TTITLE1=Bad Love
TTITLE2=Check Yourself
TTITLE3=Midnight Creeper
TTITLE4=Don't Be Confused (Acoustic)
TTITLE5=Tell Me
TTITLE6=The Way Love Was Meant To Be
TTITLE7=In The Morning
TTITLE8=New Girl In Town
TTITLE9=If You Want Me To Stay
TTITLE10=Life Is A Bitch
TTITLE11=Real Mother 'Fa 'Ya
TTITLE12=Don't Be Confused
EXTD=
EXTT0=
EXTT1=
EXTT2=
EXTT3=
EXTT4=
EXTT5=
EXTT6=
EXTT7=
EXTT8=
EXTT9=
EXTT10=
EXTT11=
EXTT12=
PLAYORDER=
